<svg width="580" height="400" xmlns="http://www.w3.org/2000/svg">
 <!-- Created with Method Draw - http://github.com/duopixel/Method-Draw/ -->

 <g>
  <title>background</title>
  <rect fill="none" id="canvas_background" height="402" width="582" y="-1" x="-1"/>
  <g display="none" overflow="visible" y="0" x="0" height="100%" width="100%" id="canvasGrid">
   <rect fill="url(#gridpattern)" stroke-width="0" y="0" x="0" height="100%" width="100%"/>
  </g>
 </g>
 <g>
  <title>Layer 1</title>
  <g id="svg_6"/>
  <g id="svg_12"/>
  <g id="svg_18"/>
  <g id="svg_24"/>
  <g id="svg_30"/>
  <g transform="matrix(1.2811354349256732,0,0,1.2811354349256732,0,0) " id="svg_35">
   <g id="svg_36">
    <circle id="svg_37" r="5.224" cy="44.368" cx="5.221" fill="#06283d"/>
    <circle id="svg_38" r="5.224" cy="44.368" cx="20.729" fill="#06283d"/>
    <circle id="svg_39" r="5.224" cy="44.368" cx="36.236" fill="#06283d"/>
    <path id="svg_40" d="m51.742,39.144c2.885,0 5.221,2.338 5.221,5.222c0,2.885 -2.336,5.227 -5.221,5.227c-2.885,0 -5.223,-2.342 -5.223,-5.227c0,-2.885 2.338,-5.222 5.223,-5.222z" fill="#06283d"/>
    <circle id="svg_41" r="5.224" cy="44.368" cx="67.25" fill="#06283d"/>
    <circle id="svg_42" r="5.224" cy="44.368" cx="82.758" fill="#06283d"/>
    <path id="svg_43" d="m113.771,39.144c2.885,0 5.225,2.338 5.225,5.222c0,2.885 -2.339,5.227 -5.225,5.227c-2.881,0 -5.221,-2.342 -5.221,-5.227c0,-2.885 2.34,-5.222 5.221,-5.222z" fill="#06283d"/>
    <path id="svg_44" d="m98.265,39.144c2.887,0 5.221,2.338 5.221,5.222c0,2.885 -2.334,5.227 -5.221,5.227c-2.885,0 -5.223,-2.342 -5.223,-5.227c0,-2.885 2.338,-5.222 5.223,-5.222z" fill="#06283d"/>
    <path id="svg_45" d="m129.281,39.144c2.885,0 5.223,2.338 5.223,5.222c0,2.885 -2.338,5.227 -5.223,5.227c-2.885,0 -5.225,-2.342 -5.225,-5.227c0,-2.885 2.34,-5.222 5.225,-5.222z" fill="#06283d"/>
    <circle id="svg_46" r="5.224" cy="44.368" cx="144.788" fill="#06283d"/>
    <circle id="svg_47" r="5.224" cy="44.368" cx="160.296" fill="#06283d"/>
    <circle id="svg_48" r="5.224" cy="44.368" cx="175.802" fill="#06283d"/>
    <circle id="svg_49" r="5.224" cy="44.368" cx="191.31" fill="#06283d"/>
    <circle id="svg_50" r="5.224" cy="44.368" cx="206.815" fill="#06283d"/>
   </g>
   <g id="svg_51">
    <path id="svg_52" d="m5.221,19.571c2.885,0 5.221,2.34 5.221,5.221c0,2.887 -2.336,5.229 -5.221,5.229c-2.885,0 -5.221,-2.342 -5.221,-5.229c0,-2.881 2.336,-5.221 5.221,-5.221z" fill="#06283d"/>
    <path id="svg_53" d="m20.729,19.571c2.885,0 5.223,2.34 5.223,5.221c0,2.887 -2.338,5.229 -5.223,5.229c-2.885,0 -5.223,-2.342 -5.223,-5.229c0,-2.881 2.338,-5.221 5.223,-5.221z" fill="#06283d"/>
    <path id="svg_54" d="m36.236,19.571c2.885,0 5.223,2.34 5.223,5.221c0,2.887 -2.338,5.229 -5.223,5.229c-2.885,0 -5.225,-2.342 -5.225,-5.229c0.001,-2.881 2.34,-5.221 5.225,-5.221z" fill="#06283d"/>
    <path id="svg_55" d="m51.742,19.571c2.885,0 5.221,2.34 5.221,5.221c0,2.887 -2.336,5.229 -5.221,5.229c-2.885,0 -5.223,-2.342 -5.223,-5.229c0,-2.881 2.338,-5.221 5.223,-5.221z" fill="#06283d"/>
    <path id="svg_56" d="m67.25,19.571c2.885,0 5.225,2.34 5.225,5.221c0,2.887 -2.34,5.229 -5.225,5.229c-2.885,0 -5.221,-2.342 -5.221,-5.229c0,-2.881 2.336,-5.221 5.221,-5.221z" fill="#06283d"/>
    <path id="svg_57" d="m82.758,19.571c2.883,0 5.223,2.34 5.223,5.221c0,2.887 -2.34,5.229 -5.223,5.229c-2.885,0 -5.221,-2.342 -5.221,-5.229c0,-2.881 2.336,-5.221 5.221,-5.221z" fill="#06283d"/>
    <path id="svg_58" d="m113.771,19.571c2.885,0 5.225,2.34 5.225,5.221c0,2.887 -2.339,5.229 -5.225,5.229c-2.881,0 -5.221,-2.342 -5.221,-5.229c0,-2.881 2.34,-5.221 5.221,-5.221z" fill="#06283d"/>
    <path id="svg_59" d="m98.265,19.571c2.887,0 5.221,2.34 5.221,5.221c0,2.887 -2.334,5.229 -5.221,5.229c-2.885,0 -5.223,-2.342 -5.223,-5.229c0,-2.881 2.338,-5.221 5.223,-5.221z" fill="#06283d"/>
    <path id="svg_60" d="m129.281,19.571c2.885,0 5.223,2.34 5.223,5.221c0,2.887 -2.338,5.229 -5.223,5.229c-2.885,0 -5.225,-2.342 -5.225,-5.229c0,-2.881 2.34,-5.221 5.225,-5.221z" fill="#06283d"/>
    <path id="svg_61" d="m144.788,19.571c2.883,0 5.225,2.34 5.225,5.221c0,2.887 -2.342,5.229 -5.225,5.229c-2.887,0 -5.221,-2.342 -5.221,-5.229c0,-2.881 2.334,-5.221 5.221,-5.221z" fill="#06283d"/>
    <path id="svg_62" d="m160.296,19.571c2.885,0 5.221,2.34 5.221,5.221c0,2.887 -2.336,5.229 -5.221,5.229s-5.223,-2.342 -5.223,-5.229c0,-2.881 2.338,-5.221 5.223,-5.221z" fill="#06283d"/>
    <path id="svg_63" d="m175.802,19.571c2.885,0 5.223,2.34 5.223,5.221c0,2.887 -2.338,5.229 -5.223,5.229c-2.887,0 -5.221,-2.342 -5.221,-5.229c0,-2.881 2.334,-5.221 5.221,-5.221z" fill="#06283d"/>
    <path id="svg_64" d="m191.31,19.571c2.885,0 5.221,2.34 5.221,5.221c0,2.887 -2.336,5.229 -5.221,5.229s-5.223,-2.342 -5.223,-5.229c0,-2.881 2.338,-5.221 5.223,-5.221z" fill="#06283d"/>
    <path id="svg_65" d="m206.815,19.571c2.887,0 5.223,2.34 5.223,5.221c0,2.887 -2.336,5.229 -5.223,5.229c-2.883,0 -5.223,-2.342 -5.223,-5.229c0,-2.881 2.34,-5.221 5.223,-5.221z" fill="#06283d"/>
   </g>
   <g id="svg_66">
    <circle id="svg_67" r="5.225" cy="5.225" cx="5.221" fill="#06283d"/>
    <circle id="svg_68" r="5.225" cy="5.225" cx="20.729" fill="#06283d"/>
    <circle id="svg_69" r="5.225" cy="5.225" cx="36.236" fill="#06283d"/>
    <circle id="svg_70" r="5.225" cy="5.225" cx="51.742" fill="#06283d"/>
    <circle id="svg_71" r="5.225" cy="5.225" cx="67.25" fill="#06283d"/>
    <circle id="svg_72" r="5.225" cy="5.225" cx="82.758" fill="#06283d"/>
    <path id="svg_73" d="m113.771,0c2.885,0 5.225,2.34 5.225,5.223c0,2.885 -2.339,5.227 -5.225,5.227c-2.881,0 -5.221,-2.342 -5.221,-5.227c0,-2.883 2.34,-5.223 5.221,-5.223z" fill="#06283d"/>
    <path id="svg_74" d="m98.265,0c2.887,0 5.221,2.34 5.221,5.223c0,2.885 -2.334,5.227 -5.221,5.227c-2.885,0 -5.223,-2.342 -5.223,-5.227c0,-2.883 2.338,-5.223 5.223,-5.223z" fill="#06283d"/>
    <circle id="svg_75" r="5.225" cy="5.225" cx="129.281" fill="#06283d"/>
    <circle id="svg_76" r="5.225" cy="5.225" cx="144.788" fill="#06283d"/>
    <circle id="svg_77" r="5.225" cy="5.225" cx="160.296" fill="#06283d"/>
    <circle id="svg_78" r="5.225" cy="5.225" cx="175.802" fill="#06283d"/>
    <circle id="svg_79" r="5.225" cy="5.225" cx="191.31" fill="#06283d"/>
    <circle id="svg_80" r="5.225" cy="5.225" cx="206.815" fill="#06283d"/>
   </g>
  </g>
  <g id="svg_81"/>
 </g>
</svg>